<svg aria-hidden="true" style="position: absolute; width: 0; height: 0; overflow: hidden;" version="1.1" xmlns="http://www.w3.org/2000/svg" xmlns:xlink="http://www.w3.org/1999/xlink">
<defs>

<symbol id="rose" viewBox="0 0 25 49">
<path d="M24.5115 15.3143V7.65842C24.5115 6.81284 23.8256 6.12726 22.9795 6.12726H21.4475V1.53375C21.4475 0.68816 20.7617 0.0025787 19.9156 0.0025787C17.7467 0.0025787 14.4252 -0.163553 10.5261 2.1711C8.10238 1.45001 6.3882 1.53375 4.5959 1.53375C3.74978 1.53375 3.06393 2.21933 3.06393 3.06492V6.12726H1.53197C0.685842 6.12726 0 6.81284 0 7.65842V15.3143C0 21.5501 4.68638 26.7123 10.7238 27.4681V47.4688C10.7238 48.3144 11.4096 49 12.2557 49C13.1019 49 13.7877 48.3144 13.7877 47.4688V42.1097H16.0856C20.7316 42.1097 24.5115 38.3319 24.5115 33.6883V31.3915C24.5115 30.546 23.8256 29.8604 22.9795 29.8604H19.1496C17.1145 29.8604 15.2456 30.5853 13.7877 31.7903V27.4674C19.8161 26.7212 24.5115 21.5847 24.5115 15.3143ZM21.4475 15.3143C21.4475 18.0393 20.2418 20.5004 18.3361 22.1879C18.3662 21.9422 18.3836 21.6926 18.3836 21.4389C18.3836 17.5614 16.9332 14.0165 14.5472 11.3159C16.57 9.93633 18.9684 9.18959 21.4475 9.18959V15.3143ZM18.3836 3.06492V6.43617C18.1005 6.49378 17.8194 6.55952 17.5405 6.63292C16.5467 5.52101 15.4132 4.57369 14.1757 3.8082C15.5134 3.31938 16.9334 3.06492 18.3836 3.06492ZM6.12787 4.59609C9.1714 4.59609 12.127 5.70685 14.4257 7.82915C13.6671 8.22046 12.9397 8.67665 12.2512 9.1939C10.47 7.85547 8.38876 6.89562 6.12787 6.43512V4.59609ZM3.06393 15.3143V9.18959C9.82172 9.18959 15.3197 14.6846 15.3197 21.4389C15.3197 23.15 13.9059 24.5443 12.1752 24.4998C6.79322 24.367 3.06393 20.0933 3.06393 15.3143ZM19.1496 32.9227H21.4475V33.6883C21.4475 36.6433 19.0422 39.0474 16.0856 39.0474H13.7877V38.2818C13.7877 35.3268 16.1931 32.9227 19.1496 32.9227Z"/>
</symbol>

<symbol id="magnifier" viewBox="0 0 24 24">
 <g clip-path="url(#clip0_6_356)">
    <path d="M15.5 14H14.71L14.43 13.73C15.41 12.59 16 11.11 16 9.5C16 5.91 13.09 3 9.5 3C5.91 3 3 5.91 3 9.5C3 13.09 5.91 16 9.5 16C11.11 16 12.59 15.41 13.73 14.43L14 14.71V15.5L19 20.49L20.49 19L15.5 14ZM9.5 14C7.01 14 5 11.99 5 9.5C5 7.01 7.01 5 9.5 5C11.99 5 14 7.01 14 9.5C14 11.99 11.99 14 9.5 14Z"/>
  </g>
  <defs>
    <clipPath id="clip0_6_356">
      <rect width="24" height="24"/>
    </clipPath>
  </defs>
</symbol>

<symbol id="burger" viewBox="0 0 26 24">
<g clip-path="url(#clip0_6_364)" filter="url(#filter0_d_6_364)">
    <path d="M4 18H22.0094V16H4V18ZM4 13H22.0094V11H4V13ZM4 6V8H22.0094V6H4Z" />
  </g>
  <defs>
    <filter id="filter0_d_6_364" x="-3.00159" y="-4" width="32.0125" height="32" filterUnits="userSpaceOnUse" color-interpolation-filters="sRGB">
      <feFlood flood-opacity="0" result="BackgroundImageFix" />
      <feColorMatrix in="SourceAlpha" type="matrix" values="0 0 0 0 0 0 0 0 0 0 0 0 0 0 0 0 0 0 127 0" result="hardAlpha" />
      <feOffset />
      <feGaussianBlur stdDeviation="2" />
      <feColorMatrix type="matrix" values="0 0 0 0 0 0 0 0 0 0 0 0 0 0 0 0 0 0 0.1 0" />
      <feBlend mode="normal" in2="BackgroundImageFix" result="effect1_dropShadow_6_364" />
      <feBlend mode="normal" in="SourceGraphic" in2="effect1_dropShadow_6_364" result="shape" />
    </filter>
    <clipPath id="clip0_6_364">
      <rect width="24.0125" height="24" transform="translate(0.998413)" />
    </clipPath>
  </defs>
</symbol>

<symbol id="play" viewBox="0 0 21 26">
<path d="M0 0V25.6667L20.1772 12.8333L0 0Z"/>
</symbol>

<symbol id="left" viewBox="0 0 15 24">
    <path fill-rule="evenodd" clip-rule="evenodd" d="M6.07336 12.1394L13.5725 19.6386C14.5489 20.6149 14.5489 22.1978 13.5725 23.1741C12.5962 24.1504 11.0133 24.1504 10.037 23.1741L0.732233 13.8693C-0.244078 12.893 -0.244078 11.3101 0.732233 10.3338C0.857529 10.2085 0.992815 10.0993 1.13553 10.0061L10.4094 0.732233C11.3858 -0.244078 12.9687 -0.244078 13.945 0.732233C14.9213 1.70854 14.9213 3.29146 13.945 4.26777L6.07336 12.1394Z" />
</symbol>

<symbol id="right" viewBox="0 0 15 24">
    <path fill-rule="evenodd" clip-rule="evenodd" d="M8.60389 12.1394L1.1047 19.6386C0.128388 20.6149 0.128388 22.1978 1.1047 23.1741C2.08101 24.1504 3.66392 24.1504 4.64023 23.1741L13.945 13.8693C14.9213 12.893 14.9213 11.3101 13.945 10.3338C13.8197 10.2085 13.6844 10.0993 13.5417 10.0061L4.2678 0.732233C3.29149 -0.244078 1.70858 -0.244078 0.732269 0.732233C-0.244041 1.70854 -0.244041 3.29146 0.732269 4.26777L8.60389 12.1394Z" />
</symbol>

<symbol id="facebook" viewBox="0 0 24 24">
    <path fill-rule="evenodd" clip-rule="evenodd" d="M13.457 19V12.25H15.643L16 9.25H13.457V7.789C13.457 7.0165 13.4781 6.25 14.6295 6.25H15.7958V4.105C15.7958 4.07275 14.794 4 13.7805 4C11.664 4 10.3387 5.24275 10.3387 7.525V9.25H8V12.25H10.3387V19H13.457Z" />
</symbol>

<symbol id="linkedin" viewBox="0 0 16 16">
<path fill-rule="evenodd" clip-rule="evenodd" d="M16 16H12.9231V10.3967C12.9231 8.85961 12.2715 8.00218 11.1031 8.00218C9.83154 8.00218 9.07692 8.89563 9.07692 10.3967V16H6V5.59243H9.07692V6.76288C9.07692 6.76288 10.0423 5 12.2177 5C14.3938 5 16 6.3818 16 9.24148C16 12.1004 16 16 16 16ZM1.50031 3C0.671513 3 0 2.32819 0 1.4997C0 0.671815 0.671513 0 1.50031 0C2.32849 0 3 0.671815 3 1.4997C3.00061 2.32819 2.32849 3 1.50031 3ZM0 16H3V6H0V16Z" />
</symbol>

<symbol id="google" viewBox="0 0 24 24">
<path fill-rule="evenodd" clip-rule="evenodd" d="M18.8751 10.6027H12.1479C12.1479 11.3023 12.1479 12.7015 12.1436 13.4011H16.0418C15.8925 14.1007 15.3628 15.0802 14.6145 15.5734C14.6138 15.5727 14.6131 15.5776 14.6116 15.5769C13.6167 16.2338 12.3037 16.3829 11.3288 16.187C9.80069 15.8833 8.59134 14.7752 8.10032 13.3675C8.10317 13.3654 8.10532 13.3459 8.10746 13.3445C7.80012 12.4714 7.80012 11.3023 8.10746 10.6027H8.10675C8.50272 9.31683 9.74851 8.14359 11.2788 7.82247C12.5096 7.56152 13.8983 7.84416 14.9197 8.79982C15.0555 8.6669 16.7995 6.96405 16.9303 6.82553C13.4409 3.66541 7.85373 4.77708 5.7631 8.85789H5.76239C5.76239 8.85789 5.7631 8.85789 5.75882 8.86558C4.72458 10.87 4.76747 13.2318 5.76596 15.1404C5.7631 15.1425 5.76096 15.1438 5.75882 15.1459C6.66368 16.902 8.31045 18.2487 10.2946 18.7615C12.4024 19.3142 15.0848 18.9364 16.8817 17.3112C16.8824 17.3119 16.8831 17.3126 16.8838 17.3133C18.4062 15.9421 19.354 13.6061 18.8751 10.6027Z" />
</symbol>

<symbol id="top" viewBox="0 0 39 22">
<path fill-rule="evenodd" clip-rule="evenodd" d="M37.292 16.6276C38.3222 17.6577 38.3222 19.328 37.292 20.3581C36.2618 21.3883 34.5916 21.3883 33.5614 20.3581L19.1386 5.9353L4.5032 20.5707C3.47303 21.6008 1.8028 21.6008 0.772627 20.5707C-0.257543 19.5405 -0.257542 17.8703 0.772628 16.8401L16.6276 0.985154C17.1526 0.460123 17.8439 0.202677 18.532 0.212815C19.4942 -0.199392 20.6516 -0.0127879 21.437 0.772628L37.292 16.6276Z" />
</symbol>

<symbol id="burger-close" viewBox="0 0 40 40">
<path d="M29.6667 12.88L27.7867 11L20.3333 18.4533L12.88 11L11 12.88L18.4533 20.3333L11 27.7867L12.88 29.6667L20.3333 22.2133L27.7867 29.6667L29.6667 27.7867L22.2133 20.3333L29.6667 12.88Z" fill="#212121" />
</symbol>

</defs>
</svg>